# xmcd
#
# Track frame offsets: 
#        150
#        15828
#        32008
#        43058
#        55275
#        66280
#        83688
#        94302
#        112865
#        125423
#        136450
#        150660
#
# Disc length: 2197 seconds
#
# Revision: 0
# Processed by: cddbd v1.4PL0 Copyright (c) Steve Scherf et al.
# Submitted via: ExactAudioCopy v0.90b4
#
DISCID=9408930c
DTITLE=George Jones - The Best Of George Jones Vol. 2 - The 90's (20th
DTITLE=Century Masters The Millennium Collection)
DYEAR=1900
DGENRE=Country
TTITLE0=I Don't Need Your Rockin' Chair
TTITLE1=You Couldn't Get The Picture
TTITLE2=Honky Tonk Myself To Death
TTITLE3=Wrong's What I Do Best
TTITLE4=High-Tech Redneck
TTITLE5=The Love In Your Eyes
TTITLE6=Never Bit A Bullet Like This (Duet With Sammy Kershaw)
TTITLE7=One (Duet With Tammy Wynette)
TTITLE8=Honky Tonk Song
TTITLE9=Love Bug (Duet With Vince Gill)
TTITLE10=Walls Can Fall
TTITLE11=It Don't Get Any Better Than This
EXTD=
EXTT0=
EXTT1=
EXTT2=
EXTT3=
EXTT4=
EXTT5=
EXTT6=
EXTT7=
EXTT8=
EXTT9=
EXTT10=
EXTT11=
PLAYORDER=
